<?xml version="1.0" standalone="no"?>
<!DOCTYPE svg PUBLIC "-//W3C//DTD SVG 20010904//EN"
 "http://www.w3.org/TR/2001/REC-SVG-20010904/DTD/svg10.dtd">
<svg version="1.0" xmlns="http://www.w3.org/2000/svg"
 width="1024.000000pt" height="1024.000000pt" viewBox="0 0 1024.000000 1024.000000"
 preserveAspectRatio="xMidYMid meet">
<metadata>
Created by potrace 1.14, written by Peter Selinger 2001-2017
</metadata>
<g transform="translate(0.000000,1024.000000) scale(0.100000,-0.100000)"
fill="#000000" stroke="none">
<path d="M4888 10235 c-2 -1 -43 -6 -93 -9 -49 -4 -99 -9 -110 -11 -11 -2 -42
-7 -70 -10 -59 -6 -160 -22 -195 -30 -14 -3 -40 -7 -58 -10 -111 -15 -622
-166 -630 -187 -2 -4 -11 -8 -20 -8 -9 -1 -35 -9 -57 -20 -22 -11 -44 -19 -48
-20 -14 0 -320 -152 -372 -184 -27 -17 -67 -40 -87 -51 -21 -11 -38 -23 -38
-27 0 -5 -3 -7 -7 -6 -18 5 -252 -160 -413 -291 -125 -101 -162 -134 -294
-267 -109 -110 -120 -121 -214 -234 -34 -41 -68 -82 -75 -89 -6 -8 -35 -47
-64 -85 -29 -39 -57 -76 -62 -83 -40 -47 -251 -395 -251 -414 0 -5 -4 -9 -10
-9 -5 0 -9 -3 -8 -7 1 -5 -20 -53 -47 -108 -28 -55 -50 -102 -51 -105 0 -3
-10 -27 -22 -53 -12 -27 -22 -51 -22 -53 0 -3 -8 -24 -19 -47 -21 -46 -98
-267 -106 -301 -2 -11 -15 -59 -29 -106 -14 -47 -27 -96 -29 -110 -3 -14 -10
-45 -17 -70 -7 -25 -14 -56 -16 -70 -2 -14 -6 -36 -9 -50 -3 -14 -8 -45 -11
-70 -3 -25 -8 -47 -9 -50 -4 -6 -18 -134 -19 -167 -1 -13 -3 -23 -6 -23 -14 0
-19 -598 -7 -720 16 -158 23 -219 31 -255 2 -11 7 -42 10 -69 4 -27 9 -52 11
-56 2 -3 6 -24 9 -46 2 -21 16 -86 31 -144 14 -58 28 -112 30 -120 17 -77 105
-336 144 -425 12 -26 21 -52 21 -57 0 -16 162 -339 207 -414 24 -39 43 -75 43
-78 0 -4 5 -12 10 -19 6 -7 44 -62 84 -124 176 -267 367 -488 627 -725 177
-162 414 -339 461 -344 17 -2 33 -6 36 -9 3 -2 13 0 23 5 11 7 20 7 24 0 4 -6
15 -6 30 0 14 5 25 6 25 2 0 -8 193 -7 214 1 7 3 19 1 26 -3 8 -5 22 -4 31 1
11 6 20 5 24 -1 3 -6 15 -6 30 0 15 6 27 6 30 0 3 -6 15 -6 30 0 15 6 25 6 25
0 0 -5 12 -5 30 0 17 5 30 6 30 2 0 -4 38 -7 85 -7 47 0 85 3 85 7 0 4 11 3
25 -2 15 -6 26 -6 30 0 4 6 13 7 23 1 11 -6 24 -6 34 0 10 6 19 6 23 0 3 -7
15 -7 30 -1 15 6 27 6 30 0 3 -6 15 -6 30 0 15 6 25 6 25 0 0 -5 12 -5 30 0
17 5 30 6 30 2 0 -4 38 -7 85 -7 47 0 85 4 85 8 0 5 4 5 10 2 15 -9 90 -12 90
-3 0 4 11 3 25 -2 15 -6 27 -6 30 0 3 6 16 5 33 -1 29 -11 29 -11 53 2 9 4 19
6 23 2 8 -9 126 -9 126 -1 0 4 11 3 25 -2 15 -6 26 -6 30 0 4 6 13 7 24 1 10
-6 23 -6 31 -1 8 5 21 5 30 0 9 -5 22 -5 30 0 8 5 18 6 24 3 13 -9 126 -9 126
-1 0 4 11 3 25 -2 15 -6 26 -6 30 0 4 7 13 7 24 0 10 -5 21 -7 24 -4 8 9 97
10 97 2 0 -4 14 -3 30 2 17 5 30 6 30 2 0 -4 38 -7 85 -7 47 0 85 2 85 5 0 3
16 5 35 5 19 0 35 -2 35 -5 0 -3 38 -5 85 -5 47 0 85 3 85 7 0 4 14 3 30 -2
18 -5 30 -5 30 0 0 6 10 6 25 0 15 -6 26 -6 30 1 4 6 13 6 23 0 9 -5 23 -6 32
-1 9 5 22 5 30 0 8 -5 21 -5 31 1 11 6 20 5 24 -1 3 -6 15 -6 30 0 15 6 27 6
30 0 3 -6 15 -6 30 0 14 5 25 6 25 2 0 -4 25 -7 55 -7 30 0 55 3 55 7 0 4 11
3 25 -2 15 -6 26 -6 30 1 4 5 11 7 16 4 14 -9 89 -12 89 -3 0 3 14 3 30 -2 17
-5 30 -5 30 0 0 5 10 6 22 1 12 -4 37 -5 55 -1 18 5 33 4 33 0 0 -5 14 -5 30
0 16 5 30 6 30 2 0 -4 38 -7 85 -7 47 0 85 2 85 5 0 3 16 5 35 5 19 0 35 -2
35 -5 0 -3 38 -5 85 -5 47 0 85 3 85 7 0 4 14 3 30 -2 18 -5 30 -5 30 0 0 6
10 6 25 0 15 -6 26 -6 30 0 4 6 13 7 24 1 10 -6 23 -6 31 -1 8 5 21 5 30 0 9
-5 22 -5 30 0 8 5 19 5 25 0 6 -5 17 -5 24 0 8 4 20 6 27 3 7 -3 19 0 26 6 7
7 58 44 113 84 55 39 105 76 111 82 6 6 34 28 62 50 29 21 52 43 52 47 0 4 4
8 8 8 26 0 323 296 447 445 28 33 52 62 55 65 29 26 242 328 286 405 6 11 34
59 62 107 28 49 48 88 44 88 -4 0 -2 4 4 8 11 7 144 275 144 290 0 4 6 18 13
32 8 14 26 59 41 100 15 41 31 84 36 95 5 11 23 67 40 125 18 58 35 112 38
120 3 8 4 19 3 23 0 4 3 16 8 26 6 10 13 31 16 47 2 16 7 40 10 54 3 14 8 36
11 49 3 14 7 27 9 31 2 4 7 29 11 56 3 27 8 51 9 54 2 3 6 24 9 46 4 22 8 49
10 60 9 47 22 154 33 274 15 169 7 659 -12 760 -2 12 -7 46 -10 74 -11 99 -17
134 -41 246 -3 14 -7 36 -10 50 -7 38 -45 193 -51 210 -3 8 -8 23 -10 33 -4
25 -43 148 -53 172 -5 11 -14 37 -20 58 -7 22 -18 51 -26 65 -8 15 -14 32 -14
37 0 17 -67 172 -132 304 -50 102 -127 240 -191 345 -32 52 -142 212 -154 224
-7 7 -13 16 -13 20 0 4 -13 21 -28 39 -15 17 -36 44 -47 59 -11 15 -29 38 -40
51 -11 12 -33 39 -50 60 -74 92 -247 268 -365 373 -40 36 -78 70 -84 75 -14
13 -138 111 -191 152 -22 17 -92 65 -155 106 -63 42 -120 81 -127 87 -7 5 -15
10 -19 10 -3 0 -39 19 -78 43 -75 45 -398 207 -414 207 -5 0 -31 9 -57 21 -78
35 -267 102 -277 99 -2 0 -30 9 -63 20 -32 11 -68 22 -80 24 -11 3 -67 17
-125 31 -58 15 -118 29 -135 31 -16 3 -50 9 -75 14 -25 5 -67 12 -95 16 -27 4
-57 8 -65 9 -8 2 -46 6 -85 10 -38 4 -83 9 -100 12 -32 5 -561 13 -567 8z
m1022 -3363 c9 -9 26 -33 40 -52 13 -19 27 -37 30 -40 11 -9 58 -117 75 -171
35 -112 26 -294 -19 -419 -42 -113 -146 -247 -241 -309 -22 -14 -42 -29 -45
-32 -3 -3 -16 -10 -30 -14 -14 -4 -27 -11 -30 -16 -10 -15 -172 -56 -221 -55
-27 1 -49 -1 -49 -4 0 -10 -108 2 -180 21 -120 31 -283 133 -296 186 -9 35 18
85 59 106 18 9 67 19 110 21 83 6 120 12 152 26 11 5 43 16 70 26 28 10 52 21
55 25 3 3 19 13 35 22 48 25 137 105 183 166 49 64 101 171 117 241 5 20 16
105 20 153 2 31 12 71 22 87 33 56 106 72 143 32z m1599 -320 c89 -87 168
-279 167 -404 -1 -32 3 -58 7 -58 5 0 6 -4 3 -9 -3 -5 -8 -26 -11 -47 -24
-192 -130 -370 -281 -474 -44 -31 -164 -91 -164 -83 0 3 -6 1 -12 -5 -19 -15
-119 -31 -208 -32 -104 -2 -184 17 -295 72 -164 79 -212 153 -142 219 31 30
63 40 133 44 147 9 287 63 393 150 46 38 121 120 121 133 0 6 4 12 9 12 11 0
63 105 84 170 18 55 27 106 32 189 5 68 31 121 70 140 27 13 72 5 94 -17z
m-1214 -1349 c20 -21 52 -65 71 -99 33 -59 78 -174 68 -174 -3 0 0 -9 6 -21
16 -29 19 -195 4 -251 -7 -27 -11 -48 -9 -48 2 0 -3 -19 -11 -42 -101 -292
-361 -473 -661 -463 -142 5 -254 44 -376 132 -74 54 -86 86 -53 135 30 45 79
68 147 68 73 0 195 32 272 71 133 67 227 162 302 307 24 46 33 72 50 147 10
43 17 103 17 148 1 26 5 47 9 47 5 0 9 5 9 12 0 7 12 25 27 40 40 41 82 38
128 -9z"/>
<path d="M3840 2560 c0 -3 -21 -5 -48 -6 -84 -1 -160 -22 -257 -72 -86 -45
-211 -166 -249 -243 -15 -30 -31 -61 -35 -69 -13 -22 -33 -89 -40 -129 -10
-60 -3 -286 9 -286 1 0 3 -8 5 -17 6 -32 85 -188 95 -188 6 0 10 -6 10 -12 0
-18 94 -108 157 -152 29 -20 55 -36 57 -36 2 0 21 -8 42 -17 22 -9 42 -18 47
-19 4 -1 8 -2 10 -4 1 -1 9 -3 17 -5 61 -13 81 -16 124 -21 28 -2 52 -6 54 -9
2 -2 15 0 28 5 13 5 24 6 24 2 0 -8 113 -8 126 1 6 3 16 2 24 -3 7 -4 24 -4
36 0 14 6 26 5 29 0 4 -7 13 -7 24 0 10 5 21 7 24 4 3 -3 26 -7 52 -10 136
-11 265 -146 270 -281 1 -18 4 -35 7 -39 4 -3 3 -16 -2 -28 -4 -13 -4 -29 0
-36 5 -8 5 -21 0 -30 -5 -9 -5 -22 0 -29 4 -8 4 -27 0 -42 -5 -16 -5 -29 0
-29 5 0 5 -13 0 -30 -5 -16 -6 -30 -2 -30 4 0 7 -33 6 -72 -2 -157 63 -313
179 -431 64 -64 177 -148 177 -130 0 3 9 -2 21 -13 12 -10 22 -17 23 -15 0 2
19 -2 41 -8 72 -22 99 -25 195 -25 130 -1 193 14 305 72 86 45 211 166 249
243 15 30 31 61 36 69 18 31 40 128 46 195 2 39 7 76 9 82 2 7 0 13 -5 13 -5
0 -5 13 0 30 5 17 5 30 0 30 -5 0 -5 13 0 30 5 17 5 30 0 30 -5 0 -5 13 0 30
5 17 5 30 0 30 -5 0 -5 13 0 30 5 19 5 30 -1 30 -6 0 -8 4 -5 9 4 5 8 35 11
66 7 87 55 166 139 233 23 19 128 53 143 48 7 -3 15 -1 18 4 4 6 13 7 24 1 9
-5 23 -6 31 -1 7 4 24 4 36 0 14 -6 26 -5 29 0 3 5 15 6 28 1 12 -5 32 -5 44
0 13 5 25 4 28 -1 3 -6 15 -6 30 0 17 6 25 6 25 -1 0 -6 4 -8 9 -5 5 3 44 8
87 10 88 5 168 22 201 43 12 8 26 14 30 14 20 -1 116 62 167 110 47 43 140
167 141 188 1 3 6 15 12 26 12 23 31 80 40 122 9 37 9 220 1 258 -4 17 -12 47
-18 67 -6 21 -10 40 -8 42 2 2 -6 13 -16 25 -11 12 -16 21 -13 21 18 0 -66
113 -129 176 -106 105 -250 172 -387 180 -27 1 -51 5 -54 7 -2 3 -18 1 -34 -3
-16 -5 -29 -5 -29 0 0 4 -16 4 -35 0 -19 -4 -35 -5 -35 -1 0 3 -18 6 -40 6
-22 0 -40 -3 -40 -7 0 -4 -13 -3 -30 2 -17 5 -32 5 -35 0 -3 -5 -16 -5 -28 -1
-12 5 -34 5 -49 0 -16 -4 -28 -4 -28 1 0 4 -16 4 -35 0 -19 -4 -35 -5 -35 -1
0 3 -18 6 -40 6 -22 0 -40 -3 -40 -7 0 -4 -13 -3 -30 2 -17 5 -32 5 -35 0 -3
-5 -16 -5 -28 -1 -12 5 -34 5 -49 0 -16 -4 -28 -4 -28 1 0 4 -16 4 -35 0 -19
-4 -35 -5 -35 -1 0 3 -18 6 -40 6 -22 0 -40 -3 -40 -7 0 -4 -13 -3 -30 2 -17
5 -32 5 -35 0 -3 -5 -16 -5 -28 -1 -12 5 -34 5 -49 0 -16 -4 -28 -4 -28 1 0 4
-16 4 -35 0 -19 -4 -35 -5 -35 -1 0 3 -18 6 -40 6 -22 0 -40 -3 -40 -7 0 -4
-13 -3 -29 2 -16 4 -32 6 -35 3 -3 -4 -29 -5 -58 -4 -29 1 -59 1 -65 1 -7 0
-20 0 -28 0 -8 0 -22 0 -30 0 -8 0 -22 0 -30 0 -8 0 -22 0 -30 0 -8 0 -22 0
-30 0 -8 0 -22 0 -30 0 -8 0 -22 0 -30 0 -8 0 -22 0 -30 0 -8 0 -22 0 -30 0
-8 0 -22 0 -30 0 -8 0 -22 0 -30 0 -8 0 -22 0 -30 0 -8 0 -22 0 -30 0 -8 0
-22 0 -30 0 -8 0 -22 0 -30 0 -8 0 -22 0 -30 0 -8 0 -22 0 -30 0 -8 0 -22 0
-30 0 -8 0 -22 0 -30 0 -8 0 -22 0 -30 0 -8 0 -22 0 -30 0 -8 0 -22 0 -30 0
-8 0 -22 0 -30 0 -8 0 -22 0 -30 0 -8 0 -22 0 -30 0 -8 0 -22 0 -30 0 -8 0
-22 0 -30 0 -8 0 -22 0 -30 0 -8 0 -22 0 -30 0 -8 0 -22 0 -30 0 -8 0 -22 0
-30 0 -8 0 -22 0 -30 0 -8 0 -21 0 -27 0 -7 0 -59 1 -116 2 -56 2 -102 1 -102
-2z"/>
</g>
</svg>
